<svg width="24" height="24" viewBox="0 0 24 24" fill="none" xmlns="http://www.w3.org/2000/svg">
<path d="M16.85 6.84999L18.29 8.28999L13.41 13.17L10.12 9.87999C10.0275 9.78729 9.91759 9.71374 9.79661 9.66356C9.67564 9.61338 9.54596 9.58755 9.41499 9.58755C9.28402 9.58755 9.15434 9.61338 9.03337 9.66356C8.91239 9.71374 8.8025 9.78729 8.70999 9.87999L2.70999 15.89C2.61741 15.9826 2.54397 16.0925 2.49386 16.2134C2.44376 16.3344 2.41797 16.4641 2.41797 16.595C2.41797 16.7259 2.44376 16.8556 2.49386 16.9765C2.54397 17.0975 2.61741 17.2074 2.70999 17.3C2.80257 17.3926 2.91248 17.466 3.03345 17.5161C3.15441 17.5662 3.28406 17.592 3.41499 17.592C3.54592 17.592 3.67557 17.5662 3.79653 17.5161C3.9175 17.466 4.02741 17.3926 4.11999 17.3L9.40999 12L12.7 15.29C13.09 15.68 13.72 15.68 14.11 15.29L19.7 9.70999L21.14 11.15C21.2099 11.2185 21.2983 11.265 21.3944 11.2837C21.4905 11.3025 21.5899 11.2926 21.6804 11.2553C21.7709 11.218 21.8485 11.155 21.9035 11.0741C21.9585 10.9932 21.9886 10.8979 21.99 10.8V6.49999C21.9927 6.43444 21.982 6.36903 21.9585 6.30778C21.935 6.24654 21.8992 6.19077 21.8532 6.14391C21.8073 6.09706 21.7523 6.06011 21.6915 6.03536C21.6308 6.0106 21.5656 5.99857 21.5 5.99999H17.21C17.1113 5.99941 17.0146 6.02806 16.9321 6.08234C16.8497 6.13662 16.7851 6.21409 16.7466 6.30499C16.7081 6.39589 16.6974 6.49615 16.7158 6.59313C16.7342 6.69012 16.7809 6.7795 16.85 6.84999Z" fill="#4B5563"/>
</svg>
