<svg width="24" height="24" viewBox="0 0 24 24" fill="none" xmlns="http://www.w3.org/2000/svg">
<path d="M16.24 7.76C15.6844 7.20135 15.0236 6.75822 14.2959 6.45615C13.5682 6.15408 12.7879 5.99905 12 6V12L7.76 16.24C10.1 18.58 13.9 18.58 16.25 16.24C16.8069 15.683 17.2485 15.0215 17.5494 14.2936C17.8504 13.5657 18.0048 12.7856 18.0039 11.9979C18.0029 11.2103 17.8467 10.4305 17.544 9.7033C17.2413 8.97609 16.7982 8.31573 16.24 7.76ZM12 2C6.48 2 2 6.48 2 12C2 17.52 6.48 22 12 22C17.52 22 22 17.52 22 12C22 6.48 17.52 2 12 2ZM12 20C7.58 20 4 16.42 4 12C4 7.58 7.58 4 12 4C16.42 4 20 7.58 20 12C20 16.42 16.42 20 12 20Z" fill="#4B5563"/>
</svg>
