<svg width="24" height="24" viewBox="0 0 24 24" fill="none" xmlns="http://www.w3.org/2000/svg">
<path d="M4.25018 5.61C6.27018 8.2 10.0002 13 10.0002 13V19C10.0002 19.55 10.4502 20 11.0002 20H13.0002C13.5502 20 14.0002 19.55 14.0002 19V13C14.0002 13 17.7202 8.2 19.7402 5.61C19.8548 5.46237 19.9256 5.28553 19.9447 5.09961C19.9637 4.91368 19.9301 4.72615 19.8478 4.55837C19.7655 4.39059 19.6377 4.24929 19.479 4.15058C19.3203 4.05186 19.1371 3.99969 18.9502 4H5.04018C4.21018 4 3.74018 4.95 4.25018 5.61Z" fill="#4B5563"/>
</svg>
