<svg width="24" height="24" viewBox="0 0 24 24" fill="none" xmlns="http://www.w3.org/2000/svg">
<path d="M5.25 3C5.05109 3 4.86032 3.07902 4.71967 3.21967C4.57902 3.36032 4.5 3.55109 4.5 3.75V17.25C4.5 17.4489 4.57902 17.6397 4.71967 17.7803C4.86032 17.921 5.05109 18 5.25 18H7.5V8.25C7.5 7.0035 8.5035 6 9.75 6H15V3.75C15 3.55109 14.921 3.36032 14.7803 3.21967C14.6397 3.07902 14.4489 3 14.25 3H5.25ZM9.75 7.5C9.55109 7.5 9.36032 7.57902 9.21967 7.71967C9.07902 7.86032 9 8.05109 9 8.25V20.25C9 20.4489 9.07902 20.6397 9.21967 20.7803C9.36032 20.921 9.55109 21 9.75 21H18.75C18.9489 21 19.1397 20.921 19.2803 20.7803C19.421 20.6397 19.5 20.4489 19.5 20.25V8.25C19.5 8.05109 19.421 7.86032 19.2803 7.71967C19.1397 7.57902 18.9489 7.5 18.75 7.5H9.75ZM11.25 10.5H17.25C17.4489 10.5 17.6397 10.579 17.7803 10.7197C17.921 10.8603 18 11.0511 18 11.25C18 11.4489 17.921 11.6397 17.7803 11.7803C17.6397 11.921 17.4489 12 17.25 12H11.25C11.0511 12 10.8603 11.921 10.7197 11.7803C10.579 11.6397 10.5 11.4489 10.5 11.25C10.5 11.0511 10.579 10.8603 10.7197 10.7197C10.8603 10.579 11.0511 10.5 11.25 10.5ZM11.25 13.5H15.75C15.9489 13.5 16.1397 13.579 16.2803 13.7197C16.421 13.8603 16.5 14.0511 16.5 14.25C16.5 14.4489 16.421 14.6397 16.2803 14.7803C16.1397 14.921 15.9489 15 15.75 15H11.25C11.0511 15 10.8603 14.921 10.7197 14.7803C10.579 14.6397 10.5 14.4489 10.5 14.25C10.5 14.0511 10.579 13.8603 10.7197 13.7197C10.8603 13.579 11.0511 13.5 11.25 13.5Z" fill="#4B5563"/>
</svg>
