<svg width="24" height="24" viewBox="0 0 24 24" fill="none" xmlns="http://www.w3.org/2000/svg">
<path d="M7.55983 8.15251L6.85858 7.45126C6.38983 6.98251 6.38983 6.22126 6.85858 5.75251L11.1598 1.44751C11.6286 0.97876 12.3898 0.97876 12.8586 1.44751L13.5598 2.15251C14.0286 2.62126 14.0286 3.38251 13.5598 3.85126L9.25858 8.15251C8.78983 8.62126 8.02858 8.62126 7.55983 8.15251ZM11.5498 10.3388L10.3723 9.16126L14.5723 4.96126L19.0498 9.43876L14.8498 13.6388L13.6723 12.4613L4.97233 21.1613C4.38733 21.7463 3.43858 21.7463 2.84983 21.1613C2.26108 20.5763 2.26483 19.6275 2.84983 19.0388L11.5498 10.3388ZM15.8586 16.4475C15.3898 15.9788 15.3898 15.2175 15.8586 14.7488L20.1598 10.4475C20.6286 9.97876 21.3898 9.97876 21.8586 10.4475L22.5598 11.1488C23.0286 11.6175 23.0286 12.3788 22.5598 12.8475L18.2586 17.1525C17.7898 17.6213 17.0286 17.6213 16.5598 17.1525L15.8586 16.4513V16.4475Z" fill="#4B5563"/>
</svg>
